<?xml version="1.0" encoding="utf-8"?>

<!DOCTYPE svg PUBLIC "-//W3C//DTD SVG 1.1//EN" "http://www.w3.org/Graphics/SVG/1.1/DTD/svg11.dtd">
<!-- Uploaded to: SVG Repo, www.svgrepo.com, Generator: SVG Repo Mixer Tools -->
<svg version="1.1" id="_x32_" xmlns="http://www.w3.org/2000/svg" xmlns:xlink="http://www.w3.org/1999/xlink" 
	 width="800px" height="800px" viewBox="0 0 512 512"  xml:space="preserve">
<style type="text/css">
<![CDATA[
	.st0{fill:#000000;}
]]>
</style>
<g>
	<path class="st0" d="M228.531,270.313c0,13.391-25.516,24.25-56.984,24.25s-56.984-10.859-56.984-24.25
		c0-13.406,25.516-24.281,56.984-24.281S228.531,256.906,228.531,270.313z"/>
	<path class="st0" d="M114.563,311.375c0,13.406,25.516,24.266,56.984,24.266s56.984-10.859,56.984-24.266v-6.031
		c0-1.844-0.922-3.563-2.469-4.594s-3.516-1.219-5.203-0.469c0,0-17.844,11-49.313,11s-49.297-11-49.297-11
		c-1.703-0.75-3.672-0.563-5.203,0.469c-1.563,1.031-2.484,2.75-2.484,4.594V311.375z"/>
	<path class="st0" d="M189.969,352.406c-4.656,7.828-8.109,16.375-10.219,25.406c-2.688,0.188-5.406,0.266-8.219,0.266
		c-31.438,0-56.969-10.859-56.969-24.297v-5.984c0-1.859,0.922-3.609,2.484-4.609c1.531-1.031,3.484-1.219,5.188-0.469
		c0,0,17.859,11,49.297,11C178.344,353.719,184.469,353.219,189.969,352.406z"/>
	<path class="st0" d="M179.828,420.25c-2.688,0.188-5.484,0.25-8.297,0.25c-31.438,0-56.969-10.875-56.969-24.25v-6.031
		c0-1.844,0.922-3.594,2.484-4.625c1.531-1,3.484-1.188,5.188-0.469c0,0,17.859,11.031,49.297,11.031c2,0,3.938-0.047,5.828-0.125
		c-0.078,0.938-0.078,1.906-0.078,2.844C177.281,406.219,178.156,413.375,179.828,420.25z"/>
	<path class="st0" d="M200.297,459.594c-8.438,2.125-18.25,3.344-28.766,3.344c-31.438,0-56.969-10.875-56.969-24.25v-6.031
		c0-1.875,0.922-3.609,2.484-4.625c1.531-1.031,3.484-1.203,5.188-0.469c0,0,17.859,11,49.297,11c5.172,0,10-0.281,14.406-0.781
		C189.672,445.719,194.516,453.063,200.297,459.594z"/>
	<path class="st0" d="M384.266,178.031c0,13.406-25.516,24.266-56.984,24.266s-56.984-10.859-56.984-24.266
		s25.516-24.25,56.984-24.25S384.266,164.625,384.266,178.031z"/>
	<path class="st0" d="M270.297,271.156c0,13.375,25.516,24.25,56.984,24.25s56.984-10.875,56.984-24.25v-6.031
		c0-1.875-0.922-3.594-2.469-4.625c-1.547-1.016-3.516-1.188-5.219-0.469c0,0-17.828,11.016-49.297,11.016
		s-49.297-11.016-49.297-11.016c-1.703-0.719-3.672-0.547-5.203,0.469c-1.563,1.031-2.484,2.75-2.484,4.625V271.156z"/>
	<path class="st0" d="M270.297,225.156c0,13.406,25.516,24.266,56.984,24.266s56.984-10.859,56.984-24.266v-6.031
		c0-1.844-0.922-3.563-2.469-4.594s-3.516-1.203-5.219-0.469c0,0-17.828,11-49.297,11s-49.297-11-49.297-11
		c-1.703-0.734-3.672-0.563-5.203,0.469c-1.563,1.031-2.484,2.75-2.484,4.594V225.156z"/>
	<path class="st0" d="M381.797,398.438c-1.547-1.016-3.516-1.188-5.219-0.469c0,0-6.188,3.797-17.641,6.938
		c-0.594,9-2.516,17.625-5.578,25.719c18.344-4.031,30.906-12.156,30.906-21.563v-6.016
		C384.266,401.188,383.344,399.469,381.797,398.438z"/>
	<path class="st0" d="M381.797,352.469c-1.547-1.031-3.516-1.203-5.219-0.469c0,0-9.156,5.625-25.875,8.828
		c3.344,7.125,5.766,14.734,7.141,22.734c15.875-4.313,26.422-11.844,26.422-20.469v-6.031
		C384.266,355.219,383.344,353.5,381.797,352.469z"/>
	<path class="st0" d="M381.797,306.484c-1.547-1.016-3.516-1.203-5.219-0.469c0,0-17.828,11.016-49.297,11.016
		c-11.656,0-21.438-1.516-29.141-3.422c15.688,5.359,29.453,14.891,39.922,27.328c26.313-2.156,46.203-11.984,46.203-23.813v-6.031
		C384.266,309.25,383.344,307.5,381.797,306.484z"/>
	<rect x="246.281" y="42.969" class="st0" width="19.453" height="44.438"/>
	<polygon class="st0" points="158.656,110.875 141.813,120.594 119.578,82.125 136.422,72.391 	"/>
	<polygon class="st0" points="77.656,184.75 67.938,201.594 29.438,179.375 39.172,162.531 	"/>
	<polygon class="st0" points="482.563,418.531 472.844,435.375 434.359,413.156 444.078,396.313 	"/>
	<polygon class="st0" points="44.453,289.219 44.453,308.688 0,308.688 0.016,289.219 	"/>
	<polygon class="st0" points="512,289.234 512,308.688 467.563,308.672 467.563,289.219 	"/>
	
		<rect x="43.824" y="393.618" transform="matrix(-0.4998 -0.8662 0.8662 -0.4998 -279.8788 670.0496)" class="st0" width="19.446" height="44.451"/>
	<polygon class="st0" points="472.844,162.531 482.563,179.375 444.078,201.594 434.359,184.75 	"/>
	<polygon class="st0" points="375.594,72.391 392.422,82.125 370.203,120.594 353.359,110.875 	"/>
	<path class="st0" d="M269.078,328.703c-38.766,0-70.172,31.422-70.172,70.172s31.406,70.156,70.172,70.156
		c38.734,0,70.156-31.406,70.156-70.156S307.813,328.703,269.078,328.703z M285.656,379.031l-1.688-0.719
		c-2.781-1.188-5.688-1.781-8.609-1.781c-8.469,0-16.25,4.922-19.984,12.438h28.25l-1.75,8.453h-28.797
		c-0.047,0.484-0.063,0.953-0.063,1.453c0,1.203,0.109,2.438,0.313,3.656h27.5l-1.734,8.438h-22.469
		c4.094,6.375,11.063,10.25,18.734,10.25c2.594,0,5.203-0.484,7.75-1.438l2.016-0.75v11.875l-1.109,0.313
		c-2.844,0.75-5.75,1.125-8.656,1.125c-13.797,0-26.203-8.531-31.203-21.375h-7.125v-8.438h5.063
		c-0.141-1.281-0.219-2.5-0.219-3.656c0-0.484,0-0.969,0.031-1.453h-4.875v-8.453h6.375c4.328-13.938,17.297-23.594,31.953-23.594
		c3.891,0,7.719,0.688,11.375,2.031l1.219,0.438L285.656,379.031z"/>
</g>
</svg>